<svg width="18" height="18" viewBox="0 0 18 18" fill="none" xmlns="http://www.w3.org/2000/svg">
<path d="M9.13831 0.209473C4.34409 0.209473 0.456787 4.14591 0.456787 9.00071C0.456787 12.5997 2.59616 15.6922 5.65407 17.0541C5.63082 16.4419 5.65019 15.7041 5.80522 15.0369C5.97188 14.3225 6.92142 10.2448 6.92142 10.2448C6.92142 10.2448 6.64237 9.68361 6.64237 8.8555C6.64237 7.55251 7.3865 6.5792 8.31666 6.5792C9.1073 6.5792 9.48712 7.17966 9.48712 7.89788C9.48712 8.70244 8.9794 9.90339 8.71973 11.018C8.50269 11.9521 9.18094 12.7095 10.0917 12.7095C11.735 12.7095 12.8435 10.5705 12.8435 8.03525C12.8435 6.10824 11.5606 4.66789 9.23132 4.66789C6.59974 4.66789 4.95645 6.65769 4.95645 8.87905C4.95645 9.64435 5.18124 10.186 5.53005 10.602C5.68895 10.7942 5.71221 10.8728 5.65407 11.0926C5.61144 11.2535 5.51842 11.642 5.47579 11.799C5.41765 12.0227 5.23937 12.1012 5.04171 12.0188C3.82863 11.5164 3.26278 10.1742 3.26278 8.65926C3.26278 6.16318 5.34402 3.16867 9.46774 3.16867C12.7815 3.16867 14.9635 5.59803 14.9635 8.20401C14.9635 11.6537 13.0683 14.2283 10.2778 14.2283C9.33984 14.2283 8.46006 13.7143 8.15776 13.1334C8.15776 13.1334 7.65392 15.1585 7.5454 15.551C7.36324 16.23 7.00281 16.905 6.67337 17.4348C7.47249 17.6735 8.30126 17.7951 9.13443 17.7959C13.9287 17.7959 17.816 13.8594 17.816 9.00463C17.816 4.14984 13.9325 0.209473 9.13831 0.209473Z" fill="white"/>
</svg>
