<svg width="21" height="21" viewBox="0 0 21 21" fill="none" xmlns="http://www.w3.org/2000/svg">
<path d="M20.3445 16.4554C19.5428 15.6478 17.6013 14.4691 16.6594 13.9941C15.4327 13.3763 15.3317 13.3258 14.3675 14.0421C13.7243 14.5201 13.2967 14.9472 12.544 14.7866C11.7913 14.6261 10.1558 13.721 8.72356 12.2935C7.29144 10.866 6.33376 9.18298 6.17272 8.43288C6.01168 7.68277 6.44583 7.26025 6.91935 6.61564C7.58673 5.70703 7.53625 5.55559 6.96579 4.32896C6.52105 3.37491 5.30797 1.45168 4.49722 0.654118C3.62995 -0.202505 3.62995 -0.0510692 3.07111 0.181133C2.61615 0.37254 2.17968 0.605212 1.76716 0.876225C0.959449 1.41281 0.511164 1.85853 0.197674 2.52839C-0.11582 3.19824 -0.256665 4.76863 1.36229 7.70951C2.98125 10.6504 4.1171 12.1542 6.46804 14.4984C8.81895 16.8426 10.6267 18.1031 13.2695 19.5851C16.5387 21.416 17.7926 21.0591 18.4646 20.7462C19.1365 20.4332 19.5843 19.9889 20.1219 19.1812C20.3937 18.7695 20.6268 18.3335 20.8186 17.8789C21.0513 17.3222 21.2027 17.3222 20.3445 16.4554Z" fill="white"/>
</svg>
