<svg width="20" height="15" viewBox="0 0 20 15" fill="none" xmlns="http://www.w3.org/2000/svg">
<path d="M19.2924 1.76285C18.6056 2.06517 17.8789 2.26434 17.1354 2.35408C17.9168 1.89052 18.5044 1.15408 18.7881 0.282871C18.0493 0.720526 17.2424 1.0276 16.4019 1.19095C16.048 0.815169 15.6223 0.516226 15.1508 0.312291C14.6793 0.108355 14.1717 0.00368581 13.6591 0.00464521C11.5833 0.00464521 9.90356 1.68171 9.90356 3.74906C9.90209 4.03661 9.93461 4.32332 10.0004 4.60304C8.512 4.53235 7.0545 4.14768 5.72121 3.47364C4.38791 2.79959 3.20818 1.85102 2.25747 0.688604C1.92395 1.25823 1.74756 1.90816 1.74674 2.57047C1.74674 3.86885 2.41539 5.01651 3.42502 5.68888C2.82684 5.6745 2.24092 5.5141 1.71699 5.22131V5.26768C1.71699 7.08386 3.01384 8.59476 4.73027 8.93867C4.4075 9.02584 4.07489 9.07001 3.74084 9.07006C3.50382 9.07048 3.26733 9.04717 3.03482 9.0005C3.51199 10.4882 4.90076 11.5702 6.54586 11.6011C5.2091 12.6448 3.56791 13.2089 1.88024 13.2047C1.58068 13.2043 1.28139 13.1862 0.983887 13.1506C2.70076 14.2613 4.69649 14.8488 6.73352 14.8432C13.6511 14.8432 17.4302 9.13575 17.4302 4.18571C17.4302 4.02341 17.426 3.86112 17.4184 3.70269C18.1519 3.17409 18.7865 2.51719 19.2924 1.76285Z" fill="white"/>
</svg>
